<svg width="159" height="76" viewBox="0 0 159 76" fill="none" xmlns="http://www.w3.org/2000/svg">
<path d="M33.4884 2.32508C35.9695 0.887065 39.0305 0.887064 41.5116 2.32508L65.9876 16.5111C68.4562 17.9419 69.976 20.5792 69.976 23.4325V51.8582C69.976 54.7115 68.4562 57.3488 65.9876 58.7796L41.5116 72.9656C39.0305 74.4036 35.9695 74.4036 33.4884 72.9656L9.01244 58.7796C6.54377 57.3488 5.02405 54.7115 5.02405 51.8582V23.4325C5.02405 20.5792 6.54377 17.9419 9.01244 16.5111L33.4884 2.32508Z" fill="#30251D"/>
<path d="M41.4106 5.6708L63.2072 18.3234C65.5191 19.6654 66.9419 22.1366 66.9419 24.8098V50.1902C66.9419 52.8634 65.5191 55.3346 63.2072 56.6766L41.4106 69.3292C39.0824 70.6807 36.2084 70.6807 33.8801 69.3292L12.0836 56.6766C9.77171 55.3346 8.34888 52.8634 8.34888 50.1902V24.8098C8.34888 22.1366 9.77172 19.6654 12.0836 18.3234L33.8801 5.6708C36.2084 4.31928 39.0824 4.31928 41.4106 5.6708Z" stroke="#F7F2EF"/>
<path d="M31.1801 41.076C31.3295 41.076 31.4461 41.1273 31.5301 41.23C31.6141 41.3233 31.6561 41.4353 31.6561 41.566C31.6561 41.6873 31.6141 41.79 31.5301 41.874C31.4461 41.958 31.3295 42 31.1801 42H25.2861C25.0995 42 24.9455 41.9393 24.8241 41.818C24.7028 41.6967 24.6421 41.552 24.6421 41.384V33.698C24.6421 33.53 24.7028 33.39 24.8241 33.278C24.9455 33.1567 25.0995 33.096 25.2861 33.096H31.1941C31.3341 33.096 31.4415 33.138 31.5161 33.222C31.5908 33.306 31.6281 33.4087 31.6281 33.53C31.6281 33.6513 31.5861 33.7587 31.5021 33.852C31.4275 33.9453 31.3201 33.992 31.1801 33.992H25.6501V37.142H30.9141C31.0448 37.142 31.1475 37.1887 31.2221 37.282C31.3061 37.366 31.3481 37.4733 31.3481 37.604C31.3481 37.716 31.3108 37.8187 31.2361 37.912C31.1615 37.996 31.0541 38.038 30.9141 38.038H25.6501V41.076H31.1801ZM34.3675 41.524C34.3675 41.6547 34.3162 41.7667 34.2135 41.86C34.1202 41.9533 34.0035 42 33.8635 42C33.7142 42 33.5882 41.9533 33.4855 41.86C33.3922 41.7667 33.3455 41.6547 33.3455 41.524V33.124C33.3455 32.9933 33.3922 32.8813 33.4855 32.788C33.5882 32.6947 33.7142 32.648 33.8635 32.648C34.0035 32.648 34.1202 32.6947 34.2135 32.788C34.3162 32.8813 34.3675 32.9933 34.3675 33.124V41.524ZM37.2116 33.208C37.2116 33.3573 37.1603 33.474 37.0576 33.558C36.9549 33.642 36.8289 33.684 36.6796 33.684C36.5396 33.684 36.4183 33.642 36.3156 33.558C36.2129 33.474 36.1616 33.3573 36.1616 33.208V33.138C36.1616 32.9887 36.2129 32.872 36.3156 32.788C36.4276 32.6947 36.5536 32.648 36.6936 32.648C36.8336 32.648 36.9549 32.6947 37.0576 32.788C37.1603 32.872 37.2116 32.9887 37.2116 33.138V33.208ZM36.1756 35.378C36.1756 35.2287 36.2269 35.1167 36.3296 35.042C36.4323 34.958 36.5536 34.916 36.6936 34.916C36.8336 34.916 36.9503 34.958 37.0436 35.042C37.1463 35.1167 37.1976 35.224 37.1976 35.364V41.538C37.1976 41.6873 37.1463 41.804 37.0436 41.888C36.9503 41.9627 36.8336 42 36.6936 42C36.5536 42 36.4323 41.9627 36.3296 41.888C36.2269 41.804 36.1756 41.6873 36.1756 41.538V35.378ZM38.6417 35.7C38.5577 35.588 38.5157 35.476 38.5157 35.364C38.5157 35.2427 38.567 35.14 38.6697 35.056C38.7724 34.9627 38.8937 34.916 39.0337 34.916C39.183 34.916 39.3137 34.9767 39.4257 35.098L41.5957 37.772L43.9197 35.112C44.013 34.9813 44.139 34.916 44.2977 34.916C44.4377 34.916 44.5637 34.9673 44.6757 35.07C44.7877 35.1633 44.8437 35.2753 44.8437 35.406C44.8437 35.4993 44.811 35.5833 44.7457 35.658L42.2817 38.402L44.8297 41.202C44.9137 41.286 44.9557 41.3887 44.9557 41.51C44.9557 41.6407 44.9044 41.7573 44.8017 41.86C44.699 41.9533 44.5824 42 44.4517 42C44.3024 42 44.1717 41.9393 44.0597 41.818L41.6097 39.004L39.3137 41.804C39.1924 41.9347 39.057 42 38.9077 42C38.777 42 38.6604 41.9533 38.5577 41.86C38.455 41.7573 38.4037 41.6453 38.4037 41.524C38.4037 41.3933 38.4597 41.2673 38.5717 41.146L40.9097 38.402L38.6417 35.7ZM47.3151 33.208C47.3151 33.3573 47.2638 33.474 47.1611 33.558C47.0585 33.642 46.9325 33.684 46.7831 33.684C46.6431 33.684 46.5218 33.642 46.4191 33.558C46.3165 33.474 46.2651 33.3573 46.2651 33.208V33.138C46.2651 32.9887 46.3165 32.872 46.4191 32.788C46.5311 32.6947 46.6571 32.648 46.7971 32.648C46.9371 32.648 47.0585 32.6947 47.1611 32.788C47.2638 32.872 47.3151 32.9887 47.3151 33.138V33.208ZM46.2791 35.378C46.2791 35.2287 46.3305 35.1167 46.4331 35.042C46.5358 34.958 46.6571 34.916 46.7971 34.916C46.9371 34.916 47.0538 34.958 47.1471 35.042C47.2498 35.1167 47.3011 35.224 47.3011 35.364V41.538C47.3011 41.6873 47.2498 41.804 47.1471 41.888C47.0538 41.9627 46.9371 42 46.7971 42C46.6571 42 46.5358 41.9627 46.4331 41.888C46.3305 41.804 46.2791 41.6873 46.2791 41.538V35.378ZM50.1732 35.966C50.5559 35.1727 51.2512 34.776 52.2592 34.776C52.4272 34.776 52.5579 34.818 52.6512 34.902C52.7445 34.986 52.7912 35.1073 52.7912 35.266C52.7912 35.4153 52.7445 35.532 52.6512 35.616C52.5579 35.7 52.4272 35.742 52.2592 35.742C51.5779 35.742 51.0645 35.98 50.7192 36.456C50.3739 36.932 50.2012 37.548 50.2012 38.304V41.51C50.2012 41.65 50.1499 41.7667 50.0472 41.86C49.9539 41.9533 49.8372 42 49.6972 42C49.5385 42 49.4125 41.958 49.3192 41.874C49.2259 41.7807 49.1792 41.6593 49.1792 41.51V35.406C49.1792 35.2567 49.2305 35.14 49.3332 35.056C49.4452 34.9627 49.5665 34.916 49.6972 34.916C49.8279 34.916 49.9399 34.9627 50.0332 35.056C50.1265 35.14 50.1732 35.2567 50.1732 35.406V35.966Z" fill="#F7F2EF"/>
<path d="M99.198 41.16C99.3007 41.2627 99.352 41.3793 99.352 41.51C99.352 41.6407 99.3007 41.7573 99.198 41.86C99.0953 41.9533 98.9787 42 98.848 42C98.708 42 98.5867 41.9487 98.484 41.846L97.84 41.174C97.448 41.482 97.014 41.72 96.538 41.888C96.062 42.056 95.5673 42.14 95.054 42.14C94.2047 42.14 93.4347 41.9487 92.744 41.566C92.0627 41.1833 91.5213 40.6327 91.12 39.914C90.7187 39.1953 90.518 38.3553 90.518 37.394C90.518 36.414 90.7467 35.5927 91.204 34.93C91.6613 34.258 92.2307 33.7633 92.912 33.446C93.5933 33.1193 94.27 32.956 94.942 32.956C95.6233 32.956 96.3187 33.1193 97.028 33.446C97.7373 33.7633 98.33 34.258 98.806 34.93C99.2913 35.5927 99.534 36.414 99.534 37.394C99.534 38.598 99.198 39.6247 98.526 40.474L99.198 41.16ZM95.054 41.188C95.4553 41.188 95.8333 41.1273 96.188 41.006C96.552 40.8847 96.8787 40.7073 97.168 40.474L96.37 39.634C96.2673 39.5313 96.216 39.4147 96.216 39.284C96.216 39.1533 96.2627 39.0413 96.356 38.948C96.4587 38.8453 96.5753 38.794 96.706 38.794C96.8553 38.794 96.9813 38.8593 97.084 38.99L97.84 39.76C98.2787 39.1067 98.498 38.332 98.498 37.436C98.498 36.6427 98.3113 35.98 97.938 35.448C97.574 34.9067 97.1213 34.5147 96.58 34.272C96.0387 34.02 95.502 33.894 94.97 33.894C94.438 33.894 93.9107 34.0153 93.388 34.258C92.8747 34.4913 92.4407 34.874 92.086 35.406C91.7407 35.938 91.568 36.6147 91.568 37.436C91.568 38.1827 91.7173 38.8407 92.016 39.41C92.324 39.9793 92.744 40.418 93.276 40.726C93.808 41.034 94.4007 41.188 95.054 41.188ZM102.473 39.004C102.473 39.424 102.571 39.802 102.767 40.138C102.972 40.4647 103.238 40.7213 103.565 40.908C103.901 41.0947 104.26 41.188 104.643 41.188C105.091 41.188 105.516 41.076 105.917 40.852C106.328 40.6187 106.654 40.3013 106.897 39.9C107.149 39.4893 107.275 39.0367 107.275 38.542V35.266C107.275 35.1073 107.317 34.986 107.401 34.902C107.494 34.818 107.62 34.776 107.779 34.776C107.938 34.776 108.064 34.8227 108.157 34.916C108.26 35 108.311 35.1167 108.311 35.266V41.51C108.311 41.6593 108.26 41.7807 108.157 41.874C108.064 41.958 107.947 42 107.807 42C107.667 42 107.546 41.958 107.443 41.874C107.35 41.7807 107.303 41.6547 107.303 41.496V40.67C107.06 41.1553 106.696 41.524 106.211 41.776C105.735 42.0187 105.208 42.14 104.629 42.14C104.078 42.14 103.56 42.0187 103.075 41.776C102.59 41.524 102.198 41.16 101.899 40.684C101.6 40.208 101.451 39.648 101.451 39.004V35.266C101.451 35.1073 101.493 34.986 101.577 34.902C101.67 34.818 101.796 34.776 101.955 34.776C102.114 34.776 102.24 34.8227 102.333 34.916C102.426 35 102.473 35.1167 102.473 35.266V39.004ZM117.335 38.416C117.335 38.8453 117.107 39.06 116.649 39.06H111.119C111.185 39.452 111.329 39.8113 111.553 40.138C111.787 40.4553 112.085 40.712 112.449 40.908C112.823 41.104 113.233 41.202 113.681 41.202C114.409 41.202 115.03 41.006 115.543 40.614C115.655 40.5113 115.786 40.46 115.935 40.46C116.066 40.46 116.178 40.502 116.271 40.586C116.365 40.67 116.411 40.7727 116.411 40.894C116.411 41.034 116.346 41.1693 116.215 41.3C115.907 41.5893 115.534 41.804 115.095 41.944C114.657 42.084 114.199 42.1493 113.723 42.14C113.005 42.14 112.365 41.9813 111.805 41.664C111.255 41.3373 110.83 40.894 110.531 40.334C110.233 39.7647 110.083 39.13 110.083 38.43C110.083 37.674 110.251 37.0207 110.587 36.47C110.923 35.9193 111.362 35.4993 111.903 35.21C112.454 34.9207 113.037 34.776 113.653 34.776C114.307 34.776 114.909 34.9067 115.459 35.168C116.019 35.4293 116.467 35.8353 116.803 36.386C117.149 36.9273 117.326 37.604 117.335 38.416ZM116.355 38.206C116.309 37.674 116.155 37.2213 115.893 36.848C115.632 36.4747 115.305 36.1947 114.913 36.008C114.531 35.8213 114.134 35.728 113.723 35.728C113.023 35.728 112.421 35.9427 111.917 36.372C111.413 36.792 111.133 37.4033 111.077 38.206H116.355ZM118.583 40.418C118.574 40.39 118.569 40.348 118.569 40.292C118.569 40.1613 118.621 40.054 118.723 39.97C118.835 39.8767 118.961 39.83 119.101 39.83C119.213 39.83 119.311 39.8627 119.395 39.928C119.479 39.9933 119.535 40.096 119.563 40.236C119.629 40.5347 119.885 40.7773 120.333 40.964C120.781 41.1413 121.276 41.23 121.817 41.23C122.088 41.23 122.391 41.1833 122.727 41.09C123.063 40.9967 123.353 40.852 123.595 40.656C123.847 40.46 123.973 40.2127 123.973 39.914C123.973 39.634 123.875 39.4287 123.679 39.298C123.483 39.158 123.25 39.0647 122.979 39.018C122.709 38.9713 122.307 38.9293 121.775 38.892C121.085 38.8267 120.534 38.752 120.123 38.668C119.713 38.5747 119.363 38.3927 119.073 38.122C118.784 37.842 118.639 37.436 118.639 36.904C118.639 36.4373 118.793 36.0453 119.101 35.728C119.409 35.4013 119.797 35.1633 120.263 35.014C120.73 34.8553 121.206 34.776 121.691 34.776C122.401 34.776 123.035 34.874 123.595 35.07C124.155 35.266 124.543 35.644 124.757 36.204C124.776 36.2787 124.785 36.3347 124.785 36.372C124.785 36.512 124.729 36.6287 124.617 36.722C124.505 36.8153 124.379 36.862 124.239 36.862C124.025 36.862 123.88 36.764 123.805 36.568C123.581 35.9893 122.877 35.7 121.691 35.7C121.206 35.7 120.744 35.8073 120.305 36.022C119.876 36.2273 119.661 36.526 119.661 36.918C119.661 37.17 119.741 37.3613 119.899 37.492C120.067 37.6227 120.273 37.7113 120.515 37.758C120.767 37.8047 121.108 37.842 121.537 37.87C121.659 37.87 121.752 37.8747 121.817 37.884C122.517 37.9493 123.073 38.0287 123.483 38.122C123.903 38.2153 124.258 38.402 124.547 38.682C124.846 38.962 124.995 39.3727 124.995 39.914C124.995 40.4553 124.823 40.894 124.477 41.23C124.132 41.5567 123.717 41.79 123.231 41.93C122.746 42.07 122.275 42.14 121.817 42.14C121.071 42.14 120.375 42.0093 119.731 41.748C119.087 41.4867 118.705 41.0433 118.583 40.418ZM129.702 34.916C129.851 34.916 129.968 34.958 130.052 35.042C130.136 35.126 130.178 35.224 130.178 35.336C130.178 35.4573 130.136 35.56 130.052 35.644C129.968 35.728 129.851 35.77 129.702 35.77H128.176V39.578C128.176 40.0727 128.246 40.4693 128.386 40.768C128.535 41.0667 128.824 41.216 129.254 41.216C129.356 41.216 129.473 41.202 129.604 41.174C129.744 41.1367 129.846 41.0993 129.912 41.062C130.014 41.006 130.108 40.978 130.192 40.978C130.313 40.978 130.416 41.0247 130.5 41.118C130.593 41.2113 130.64 41.3187 130.64 41.44C130.64 41.6267 130.537 41.7807 130.332 41.902C130.052 42.0607 129.692 42.14 129.254 42.14C127.863 42.14 127.168 41.286 127.168 39.578V35.77H126.244C126.094 35.77 125.978 35.728 125.894 35.644C125.81 35.56 125.768 35.462 125.768 35.35C125.768 35.238 125.81 35.14 125.894 35.056C125.978 34.9627 126.094 34.916 126.244 34.916H127.168V33.25C127.168 33.0913 127.214 32.97 127.308 32.886C127.41 32.7927 127.532 32.746 127.672 32.746C127.812 32.746 127.928 32.7927 128.022 32.886C128.124 32.97 128.176 33.0913 128.176 33.25V34.916H129.702ZM132.932 33.208C132.932 33.3573 132.881 33.474 132.778 33.558C132.676 33.642 132.55 33.684 132.4 33.684C132.26 33.684 132.139 33.642 132.036 33.558C131.934 33.474 131.882 33.3573 131.882 33.208V33.138C131.882 32.9887 131.934 32.872 132.036 32.788C132.148 32.6947 132.274 32.648 132.414 32.648C132.554 32.648 132.676 32.6947 132.778 32.788C132.881 32.872 132.932 32.9887 132.932 33.138V33.208ZM131.896 35.378C131.896 35.2287 131.948 35.1167 132.05 35.042C132.153 34.958 132.274 34.916 132.414 34.916C132.554 34.916 132.671 34.958 132.764 35.042C132.867 35.1167 132.918 35.224 132.918 35.364V41.538C132.918 41.6873 132.867 41.804 132.764 41.888C132.671 41.9627 132.554 42 132.414 42C132.274 42 132.153 41.9627 132.05 41.888C131.948 41.804 131.896 41.6873 131.896 41.538V35.378ZM138.058 42.14C137.34 42.14 136.7 41.972 136.14 41.636C135.59 41.3 135.16 40.8473 134.852 40.278C134.554 39.6993 134.404 39.06 134.404 38.36C134.404 37.688 134.563 37.0813 134.88 36.54C135.198 35.9893 135.632 35.56 136.182 35.252C136.742 34.9347 137.368 34.776 138.058 34.776C138.749 34.776 139.374 34.9393 139.934 35.266C140.494 35.5927 140.928 36.036 141.236 36.596C141.554 37.156 141.712 37.7673 141.712 38.43C141.712 39.13 141.554 39.7647 141.236 40.334C140.928 40.894 140.494 41.3373 139.934 41.664C139.374 41.9813 138.749 42.14 138.058 42.14ZM138.044 35.728C137.587 35.728 137.158 35.8353 136.756 36.05C136.364 36.2553 136.047 36.568 135.804 36.988C135.562 37.3987 135.44 37.8933 135.44 38.472C135.44 38.9667 135.548 39.424 135.762 39.844C135.986 40.2547 136.294 40.5813 136.686 40.824C137.088 41.0573 137.545 41.174 138.058 41.174C138.562 41.174 139.015 41.0527 139.416 40.81C139.818 40.558 140.13 40.2267 140.354 39.816C140.578 39.4053 140.69 38.9667 140.69 38.5C140.69 37.9027 140.564 37.394 140.312 36.974C140.06 36.554 139.734 36.2413 139.332 36.036C138.931 35.8307 138.502 35.728 138.044 35.728ZM149.208 37.912C149.208 37.492 149.105 37.1187 148.9 36.792C148.704 36.456 148.438 36.1947 148.102 36.008C147.775 35.8213 147.42 35.728 147.038 35.728C146.59 35.728 146.16 35.8447 145.75 36.078C145.348 36.302 145.022 36.6193 144.77 37.03C144.527 37.4313 144.406 37.8793 144.406 38.374V41.51C144.406 41.6687 144.359 41.79 144.266 41.874C144.182 41.958 144.06 42 143.902 42C143.743 42 143.612 41.958 143.51 41.874C143.416 41.7807 143.37 41.6593 143.37 41.51V35.406C143.37 35.2567 143.416 35.14 143.51 35.056C143.612 34.9627 143.734 34.916 143.874 34.916C144.014 34.916 144.13 34.9627 144.224 35.056C144.326 35.14 144.378 35.2613 144.378 35.42V36.232C144.62 35.7467 144.98 35.3827 145.456 35.14C145.941 34.8973 146.473 34.776 147.052 34.776C147.602 34.776 148.12 34.902 148.606 35.154C149.091 35.3967 149.483 35.756 149.782 36.232C150.08 36.708 150.23 37.268 150.23 37.912V41.51C150.23 41.6687 150.183 41.79 150.09 41.874C150.006 41.958 149.884 42 149.726 42C149.567 42 149.441 41.958 149.348 41.874C149.254 41.7807 149.208 41.6593 149.208 41.51V37.912ZM151.847 40.418C151.838 40.39 151.833 40.348 151.833 40.292C151.833 40.1613 151.884 40.054 151.987 39.97C152.099 39.8767 152.225 39.83 152.365 39.83C152.477 39.83 152.575 39.8627 152.659 39.928C152.743 39.9933 152.799 40.096 152.827 40.236C152.892 40.5347 153.149 40.7773 153.597 40.964C154.045 41.1413 154.54 41.23 155.081 41.23C155.352 41.23 155.655 41.1833 155.991 41.09C156.327 40.9967 156.616 40.852 156.859 40.656C157.111 40.46 157.237 40.2127 157.237 39.914C157.237 39.634 157.139 39.4287 156.943 39.298C156.747 39.158 156.514 39.0647 156.243 39.018C155.972 38.9713 155.571 38.9293 155.039 38.892C154.348 38.8267 153.798 38.752 153.387 38.668C152.976 38.5747 152.626 38.3927 152.337 38.122C152.048 37.842 151.903 37.436 151.903 36.904C151.903 36.4373 152.057 36.0453 152.365 35.728C152.673 35.4013 153.06 35.1633 153.527 35.014C153.994 34.8553 154.47 34.776 154.955 34.776C155.664 34.776 156.299 34.874 156.859 35.07C157.419 35.266 157.806 35.644 158.021 36.204C158.04 36.2787 158.049 36.3347 158.049 36.372C158.049 36.512 157.993 36.6287 157.881 36.722C157.769 36.8153 157.643 36.862 157.503 36.862C157.288 36.862 157.144 36.764 157.069 36.568C156.845 35.9893 156.14 35.7 154.955 35.7C154.47 35.7 154.008 35.8073 153.569 36.022C153.14 36.2273 152.925 36.526 152.925 36.918C152.925 37.17 153.004 37.3613 153.163 37.492C153.331 37.6227 153.536 37.7113 153.779 37.758C154.031 37.8047 154.372 37.842 154.801 37.87C154.922 37.87 155.016 37.8747 155.081 37.884C155.781 37.9493 156.336 38.0287 156.747 38.122C157.167 38.2153 157.522 38.402 157.811 38.682C158.11 38.962 158.259 39.3727 158.259 39.914C158.259 40.4553 158.086 40.894 157.741 41.23C157.396 41.5567 156.98 41.79 156.495 41.93C156.01 42.07 155.538 42.14 155.081 42.14C154.334 42.14 153.639 42.0093 152.995 41.748C152.351 41.4867 151.968 41.0433 151.847 40.418Z" fill="#30251D"/>
</svg>
